# xmcd CD database file
# Copyright (C) 1996 Ti Kan
#
# Track frame offsets:
# 	182
# 	13050
# 	24582
# 	39465
# 	55252
# 	69435
# 	84192
# 	97455
# 	107007
# 	119417
# 	128592
# 	138475
# 	149137
# 	162955
# 	172075
# 	188720
# 	207905
# 	220282
# 	231087
# 	243480
# 	255392
# 	267817
# 	279605
# 	293750
# 	306207
# 	316412
# 	324595
# 	334190
# 	347080
#
# Disc length: 4734 seconds
#
# Revision: 1
# Processed by: cddbd v1.4b41PL1 Copyright (c) Steve Scherf et al.
# Submitted via: DiscPlay 3.3
#
DISCID=bc127c1d
DTITLE=Downliners Sect - The Definitive Downliners Sect singles A's and B
DTITLE='s
DYEAR=1900
DGENRE=
TTITLE0=Cadillac
TTITLE1=Roll over Beethoven
TTITLE2=Beautiful Delilah
TTITLE3=Shame, shame, shame
TTITLE4=Green onions
TTITLE5=Nursery rhymes
TTITLE6=Baby what's wrong
TTITLE7=Be a Sect maniac
TTITLE8=Little Egypt
TTITLE9=Sect appeal
TTITLE10=Find out what's happening
TTITLE11=Insecticide
TTITLE12=Wreck of the old 97
TTITLE13=Leader of the Sect
TTITLE14=I want my baby back
TTITLE15=Midnight hour
TTITLE16=Now she's dead
TTITLE17=i got mine
TTITLE18=Waiting in heaven somewhere
TTITLE19=Bad storm coming
TTITLE20=Lonely and blue
TTITLE21=All night worker
TTITLE22=He was a square
TTITLE23=Glendora
TTITLE24=I'll find out
TTITLE25=The cost of living
TTITLE26=Everything I've got to give
TTITLE27=I can't get away from you
TTITLE28=Roses
EXTD=
EXTT0=
EXTT1=
EXTT2=
EXTT3=
EXTT4=
EXTT5=
EXTT6=
EXTT7=
EXTT8=
EXTT9=
EXTT10=
EXTT11=
EXTT12=
EXTT13=
EXTT14=
EXTT15=
EXTT16=
EXTT17=
EXTT18=
EXTT19=
EXTT20=
EXTT21=
EXTT22=
EXTT23=
EXTT24=
EXTT25=
EXTT26=
EXTT27=
EXTT28=
PLAYORDER=
